<?xml version="1.0" encoding="UTF-8" standalone="no"?>
<!-- Created with Inkscape (http://www.inkscape.org/) -->

<svg
   xmlns:dc="http://purl.org/dc/elements/1.1/"
   xmlns:cc="http://creativecommons.org/ns#"
   xmlns:rdf="http://www.w3.org/1999/02/22-rdf-syntax-ns#"
   xmlns:svg="http://www.w3.org/2000/svg"
   xmlns="http://www.w3.org/2000/svg"
   xmlns:sodipodi="http://sodipodi.sourceforge.net/DTD/sodipodi-0.dtd"
   xmlns:inkscape="http://www.inkscape.org/namespaces/inkscape"
   width="996.56567"
   height="1044.4468"
   id="svg3668"
   version="1.1"
   inkscape:version="0.48.4 r9939"
   sodipodi:docname="bandeira.svg">
  <defs
     id="defs3670" />
  <sodipodi:namedview
     id="base"
     pagecolor="#ffffff"
     bordercolor="#666666"
     borderopacity="1.0"
     inkscape:pageopacity="0.0"
     inkscape:pageshadow="2"
     inkscape:zoom="0.35"
     inkscape:cx="216.13998"
     inkscape:cy="693.65186"
     inkscape:document-units="px"
     inkscape:current-layer="layer1"
     showgrid="false"
     fit-margin-top="50"
     fit-margin-left="50"
     fit-margin-right="50"
     fit-margin-bottom="50"
     inkscape:window-width="1364"
     inkscape:window-height="748"
     inkscape:window-x="0"
     inkscape:window-y="18"
     inkscape:window-maximized="0" />
  <metadata
     id="metadata3673">
    <rdf:RDF>
      <cc:Work
         rdf:about="">
        <dc:format>image/svg+xml</dc:format>
        <dc:type
           rdf:resource="http://purl.org/dc/dcmitype/StillImage" />
        <dc:title></dc:title>
      </cc:Work>
    </rdf:RDF>
  </metadata>
  <g
     inkscape:label="Layer 1"
     inkscape:groupmode="layer"
     id="layer1"
     transform="translate(-158.86002,47.00404)">
    <path
       style="fill:#000000;fill-opacity:1"
       d="m 333.38304,907.45934 0,-39.98252 5.35541,-5.35597 c 2.94549,-2.94579 8.40156,-6.77441 12.12461,-8.50806 l 6.76918,-3.15207 62.58919,-0.0127 62.58919,-0.0127 0,11.10092 0,11.10095 -54.49865,0.36945 -54.49865,0.36947 -4.48592,4.89662 -4.48593,4.89664 0,20.99369 0,20.99368 58.3292,0 58.32918,0 0,11.14268 0,11.14266 -74.05841,0 -74.0584,0 0,-39.98251 z m 163.84605,0.84002 0,-39.14251 5.25768,-5.97363 c 2.8917,-3.2855 8.31614,-7.49791 12.05427,-9.36087 l 6.7966,-3.38725 62.65951,0 62.65954,0 0,48.50338 0,48.50339 -15.72922,0 -15.72923,0 0,-19.66354 0,-19.66354 -43.91074,0 -43.91075,0 0,19.66354 0,19.66354 -15.07382,0 -15.07384,0 0,-39.14251 z m 117.96915,-27.05806 0,-8.52086 -36.67498,0 c -30.78633,0 -37.52919,0.34182 -41.99495,2.12884 -5.44144,2.17745 -9.15156,7.13397 -9.15156,12.22598 0,2.65514 0.51924,2.6869 43.91075,2.6869 l 43.91074,0 0,-8.52086 z m 47.18767,26.21804 0,-39.98252 5.35543,-5.35597 c 2.94547,-2.94579 8.40155,-6.77441 12.12462,-8.50806 l 6.76915,-3.15207 62.58921,-0.0127 62.58919,-0.0127 0,11.10092 0,11.10095 -54.49865,0.36945 -54.49866,0.36947 -4.48593,4.89662 -4.48591,4.89664 0,20.99369 0,20.99368 58.32918,0 58.3292,0 0,11.14268 0,11.14266 -74.0584,0 -74.05843,0 0,-39.98251 z m 163.84606,0 0,-39.98252 5.35542,-5.35597 c 2.94549,-2.94579 8.40155,-6.77441 12.12462,-8.50806 l 6.76918,-3.15207 62.5892,-0.0127 62.5892,-0.0127 0,40.01701 0,40.01702 -5.605,5.60552 c -3.0827,3.08305 -8.2826,6.9019 -11.5553,8.48638 -5.8764,2.84559 -6.7364,2.88144 -69.1089,2.88144 l -63.15842,0 0,-39.98252 z m 110.71492,15.83411 c 7.4551,-3.11522 8.565,-7.0346 8.565,-30.24408 l 0,-20.43923 -39.42546,0.38288 -39.42546,0.38287 -4.48529,4.89663 -4.48527,4.89664 0,20.99367 0,20.9937 37.39901,0 c 29.35697,0 38.35777,-0.40063 41.85747,-1.86308 z M 630.92747,789.37511 c -47.98291,-2.15424 -83.47319,-5.68282 -125.73543,-12.50112 -33.50252,-5.40506 -51.12864,-8.91203 -55.09056,-10.96103 -11.99089,-6.20136 -52.57872,-61.69509 -68.68141,-93.90467 -11.34936,-22.70165 -11.6835,-20.69967 5.91456,-35.43744 34.86745,-29.20031 60.08526,-44.33243 60.08526,-36.05457 0,5.28808 -9.33889,27.19977 -24.38587,57.21618 -18.66319,37.2302 -20.10851,40.63798 -17.23562,40.63798 2.5841,0 16.88438,-9.76333 40.07923,-27.36355 11.04699,-8.38243 22.29432,-16.89075 24.99402,-18.90741 l 4.90858,-3.66662 44.47671,7.6929 44.47672,7.69288 0.28604,10.39366 c 1.06932,38.85513 4.58739,75.81564 8.06805,84.76233 3.15837,8.11826 7.39021,1.74 34.34964,-51.77189 l 19.65617,-39.01566 47.41228,0.34404 47.4123,0.34402 13.90696,31.46165 c 15.11777,34.20084 25.71222,55.85758 29.78162,60.87837 2.50079,3.08546 2.63974,3.10865 3.92581,0.65545 2.06105,-3.93152 5.24442,-19.25444 10.20256,-49.10935 5.31712,-32.01654 9.20115,-45.3225 16.35874,-56.04219 4.39434,-6.58124 35.92162,-42.24638 37.34497,-42.24638 0.25589,0 11.78847,12.24056 25.62795,27.20122 40.41516,43.6893 42.9886,48.2078 36.18904,63.54139 -5.82242,13.13004 -30.48082,47.19788 -44.43846,61.39578 -6.73884,6.85483 -7.84704,7.45158 -18.82212,10.1353 -15.70442,3.84018 -43.23968,7.68599 -72.61244,10.14167 -22.68166,1.89627 -105.77879,3.50515 -128.4553,2.48706 z m -52.7657,-141.80214 c -0.29457,-51.58918 -0.98487,-85.075 -1.80384,-87.50272 -0.72967,-2.16299 -2.2552,-4.11165 -3.3901,-4.33033 -1.14074,-0.21982 -28.46099,20.68135 -61.09626,46.74129 -60.52299,48.32885 -70.6512,56.0426 -71.91921,54.77446 -0.4012,-0.40125 7.68148,-18.00781 17.96149,-39.12571 30.34479,-62.3364 39.3333,-82.7303 37.3411,-84.72272 -0.41299,-0.41302 -2.74736,0.32431 -5.18751,1.63855 -9.11384,4.90864 -26.1351,19.45373 -89.37183,76.37047 -11.16964,10.05332 -13.57607,11.58767 -10.44763,6.66141 16.36289,-25.76612 69.87269,-111.5187 73.96778,-118.53765 3.01794,-5.17276 5.48719,-10.10927 5.48719,-10.96999 0,-1.1976 -8.24584,-1.34001 -35.12634,-0.60661 -38.52058,1.05094 -47.46348,0.1774 -53.72428,-5.24773 -4.904,-4.2494 -3.02868,-5.61682 9.93203,-7.24211 28.64728,-3.59243 89.40472,-32.10961 89.40472,-41.96308 0,-4.68833 -7.02762,-21.84582 -17.69536,-43.2021 -18.10874,-36.25275 -21.62768,-49.61279 -21.62768,-82.11173 0,-50.83998 14.52549,-93.81178 45.13687,-133.53168 9.77038,-12.6776 16.51587,-27.44682 18.03503,-39.48762 3.77123,-29.89065 16.89423,-48.319757 43.99618,-61.785427 15.30641,-7.60503 21.91941,-7.90641 42.5032,-1.93698 21.79056,6.31938 43.95469,8.63072 74.41936,7.76065 26.12434,-0.7461 38.56728,-2.58244 48.18383,-7.111 2.7242,-1.28284 4.95305,-3.18265 4.95305,-4.2218 0,-2.82861 -10.05764,-9.94964 -18.53077,-13.12017 -24.05847,-9.00234 -70.64181,-11.74917 -100.74916,-5.94077 -13.61007,2.6257 -43.70638,12.82899 -70.48529,23.89602 -42.51414,17.57001 -114.75528,55.629007 -179.87148,94.762187 -35.48014,21.32268 -49.10626,30.65863 -49.28082,33.76483 -0.78445,13.95871 6.13616,46.16088 22.60129,105.16575 12.34527,44.24086 21.59789,72.95141 44.9525,139.48613 4.02514,11.46721 7.08735,21.08059 6.80489,21.36309 -0.28247,0.28249 -7.72743,1.63765 -16.5444,3.01146 -23.76336,3.7027 -29.76162,5.14504 -33.06942,7.95195 l -2.99018,2.53737 3.07951,2.60972 c 4.00669,3.39545 11.16644,5.45431 34.30612,9.86507 30.7062,5.85306 32.81862,7.57585 49.9802,40.76133 l 9.63104,18.62361 -13.10768,19.43303 c -26.3407,39.05191 -41.07136,58.1501 -44.85184,58.1501 -9.36843,0 -65.24141,-126.00699 -90.09678,-203.18985 -19.42175,-60.31 -61.01127,-215.18128 -61.01127,-227.19417 0,-1.69222 28.35684,-19.49994 94.37532,-59.26642 C 438.09224,59.321523 531.28659,18.169343 609.29979,5.4030238 c 19.77554,-3.23613 59.41273,-3.20332 75.95833,0.0629 56.86711,11.2258692 156.36741,61.3748192 247.80147,124.8939162 63.4317,44.0659 172.36611,125.0591 172.36611,128.15496 0,0.98587 -13.2362,36.38803 -23.3115,62.34998 -39.0923,100.73318 -83.31011,200.66006 -118.03041,266.73444 -13.0129,24.76426 -45.0939,80.66321 -46.4942,81.01316 -0.5784,0.14453 -5.19067,-8.88077 -10.24948,-20.0562 -37.86451,-83.64644 -41.47986,-98.18598 -27.8132,-111.85402 6.18316,-6.18378 17.497,-10.76123 50.95518,-20.6158 26.2498,-7.73147 36.1909,-11.47514 37.9256,-14.28225 2.2112,-3.57817 -18.4909,-9.83203 -38.9898,-11.77835 -13.4313,-1.27529 -19.29674,-3.3111 -19.29674,-6.69762 0,-3.489 4.67894,-15.11808 26.87734,-66.80167 29.9915,-69.82797 68.38831,-167.91604 66.76151,-170.54848 -1.732,-2.80275 -84.43491,-63.92897 -125.09729,-92.46021 -34.16351,-23.97119 -75.52055,-49.92707 -77.07492,-48.37257 -1.03096,1.03107 3.75534,24.83848 7.23829,36.00384 4.20533,13.48107 13.79456,32.71554 25.71359,51.57736 23.51374,37.21045 34.03404,70.70822 34.05676,108.44067 0.0141,22.78611 -2.40268,37.76379 -9.5394,59.1284 -8.41774,25.19951 -18.96792,44.4452 -39.52725,72.10591 -5.6858,7.64972 -10.3378,14.2744 -10.3378,14.72151 0,0.44713 9.39632,7.03951 20.88071,14.64976 25.32295,16.78045 48.04668,27.86488 67.23073,32.79452 14.79385,3.80152 21.99307,7.18353 21.99307,10.33174 0,2.70405 -11.8325,6.75078 -24.7853,8.47662 -17.27781,2.30211 -36.52985,1.8319 -51.43041,-1.25612 -7.23118,-1.49861 -13.38724,-2.48507 -13.68012,-2.19216 -0.29287,0.2929 10.59718,23.49303 24.20012,51.55583 24.49972,50.54279 41.1119,86.99767 42.81463,93.95532 0.52635,2.15077 0.34365,3.60499 -0.4529,3.60499 -2.47843,0 -13.90253,-9.95262 -40.89364,-35.62633 -39.94317,-37.99357 -65.02444,-60.3179 -71.70953,-63.82718 -2.4117,-1.26601 -3.10349,-1.1282 -4.14955,0.82659 -2.37898,4.44563 -3.97009,22.02301 -4.77451,52.74534 -1.13676,43.41498 -6.53236,112.51897 -8.97627,114.96313 -0.30621,0.30622 -7.78872,-13.4896 -16.6278,-30.65741 -30.99075,-60.19201 -57.85613,-108.56509 -65.03066,-117.09242 -6.22217,-7.39538 -11.13803,-4.39888 -23.67946,14.43406 -6.11273,9.17921 -51.85132,86.32445 -71.69854,120.93074 -4.85866,8.47171 -9.04759,15.4031 -9.30877,15.4031 -0.26116,0 -0.68957,-37.60651 -0.95201,-83.57002 z m 182.36745,26.93033 c 4.78998,-26.19103 6.04394,-50.09097 4.2845,-81.6605 -0.84385,-15.14092 -1.52625,-33.57548 -1.51646,-40.96569 0.0207,-15.58728 0.3496,-15.87728 10.74971,-9.47738 17.93661,11.03763 61.9599,46.24003 73.10358,58.4559 6.00172,6.57918 12.85522,12.30616 14.72682,12.30616 2.20862,0 0.8963,-7.06701 -3.35635,-18.07433 -4.99775,-12.93588 -15.45951,-34.06822 -39.35393,-79.49331 -9.0748,-17.2519 -16.35877,-31.50236 -16.18662,-31.6677 0.17217,-0.16533 6.52464,2.76132 14.11661,6.50371 16.35813,8.06353 28.83465,11.39883 45.98292,12.2924 19.98649,1.04147 20.14344,-0.50452 1.00257,-9.87471 -8.92261,-4.36795 -25.24778,-14.03615 -36.27819,-21.48487 -11.03037,-7.44872 -21.42865,-14.39091 -23.10727,-15.4271 -2.9101,-1.79635 -3.74525,-1.33315 -17.95705,9.95959 -28.37564,22.54737 -41.75944,31.31446 -67.1394,43.97979 -42.85512,21.38593 -65.23576,22.89648 -111.41812,7.52004 -21.04931,-7.0084 -33.92151,-13.24468 -53.30278,-25.82398 -17.43896,-11.31866 -22.21242,-13.37454 -24.53563,-10.56721 -0.7842,0.9476 -5.8336,12.04625 -11.22092,24.66369 -5.38733,12.61743 -15.16948,35.1699 -21.73812,50.1166 -17.66767,40.20213 -25.83022,62.62099 -22.79984,62.62099 4.30524,0 27.16954,-18.13489 72.45303,-57.46639 18.38352,-15.9672 34.4171,-29.03622 35.63012,-29.04223 1.21303,-0.007 2.66757,1.31636 3.23233,2.93861 0.56473,1.62224 1.07825,34.80445 1.14116,73.73825 0.0676,41.87205 0.63239,72.29266 1.38253,74.47039 l 1.26818,3.68165 2.75398,-3.0262 c 5.31467,-5.84012 25.08692,-36.68814 60.75583,-94.78937 11.2345,-18.2999 18.94592,-26.8735 24.17103,-26.8735 9.85615,0 12.00766,3.34189 59.72628,92.77198 10.45337,19.59083 19.34293,35.63695 19.75458,35.65806 0.41163,0.0211 2.06533,-7.16239 3.67492,-15.96334 z M 450.07745,551.95501 c 6.27071,-4.28802 36.55595,-33.45304 57.03636,-54.92665 l 20.70658,-21.71071 -17.12796,-17.1297 -17.12795,-17.12972 -8.98155,4.99706 c -4.93985,2.74838 -16.94445,9.70712 -26.6769,15.46387 -26.99416,15.96704 -33.46892,21.83787 -22.07469,20.01568 11.78363,-1.88448 34.7933,-13.6311 52.8878,-26.99967 4.0716,-3.00815 7.67471,-5.19755 8.00692,-4.86529 0.33221,0.33223 -3.43368,10.00096 -8.36865,21.48607 -8.06011,18.75816 -18.53097,38.31659 -36.02157,67.28441 -8.82172,14.61051 -9.46174,18.44044 -2.25839,13.51465 z m 230.64496,-39.15252 c 67.771,-12.85725 148.2991,-88.58484 172.77633,-162.47661 5.85349,-17.67052 7.3187,-29.3226 6.39562,-50.86129 -1.56654,-36.55209 -14.06899,-73.82276 -36.36724,-108.41333 -13.94623,-21.63434 -17.36714,-23.49423 -27.55543,-14.98129 -11.25822,9.40692 -19.60307,12.02163 -30.9919,9.71071 -20.6216,-4.18433 -63.73671,-33.37757 -76.32985,-51.68294 -4.47973,-6.51172 -7.43406,-15.51813 -8.62335,-26.28878 -0.75774,-6.86223 -1.50137,-8.467827 -5.83027,-12.588557 -5.00453,-4.76385 -13.00436,-7.73042 -20.84632,-7.73042 -6.51552,0 -16.31663,2.5698 -19.74016,5.17578 -2.93184,2.2317 -3.18865,3.24649 -2.90568,11.481977 0.46899,13.64924 -5.27036,24.2367 -22.58475,41.66254 -16.36836,16.47367 -28.1099,25.32444 -43.38575,32.70416 -22.92873,11.07677 -37.46053,11.5934 -50.98894,1.81276 -8.74715,-6.32394 -16.05878,-4.49531 -25.66879,6.41968 -14.3391,16.28625 -29.12734,52.20076 -34.8683,84.68064 -2.53435,14.33818 -2.82287,41.77784 -0.59527,56.61302 6.11463,40.72202 25.2297,76.56432 61.02084,114.41902 35.73069,37.79075 76.38207,62.83614 114.18182,70.34757 12.56668,2.49721 39.73257,2.49484 52.90739,-0.006 z m -41.27495,-23.03491 c -36.56494,-10.38116 -76.89392,-48.00276 -105.91406,-98.80373 -11.99424,-20.9964 -21.88585,-49.39514 -21.88585,-62.83401 0,-7.74201 -5.58422,-18.19207 -12.86197,-24.06942 -10.72729,-8.66308 -19.24746,-17.09922 -18.26344,-18.08334 2.09365,-2.09386 11.72442,2.61737 31.12541,15.22606 23.17087,15.05877 53.51786,30.53512 72.82819,37.14088 28.24563,9.66243 59.80026,13.77762 86.96035,11.34092 43.80068,-3.92961 77.29649,-16.82757 125.91796,-48.48617 30.67435,-19.9728 33.08426,-20.39642 20.45315,-3.59527 -14.529,19.32565 -20.62277,32.13047 -25.64921,53.89659 -6.48111,28.06547 -21.02994,53.70312 -48.36402,85.22613 -21.62044,24.93373 -45.82771,43.77783 -67.24573,52.34727 -10.77049,4.3093 -23.52656,4.54795 -37.10078,0.69409 z m 29.58209,-74.00949 c 11.49286,-3.35655 22.69462,-10.40548 32.66387,-20.55442 14.42075,-14.68067 26.34955,-33.36259 24.45518,-38.29973 -1.02634,-2.67484 -7.22778,-2.55275 -32.88056,0.64735 -29.13642,3.63468 -50.816,3.41398 -81.5453,-0.83012 -13.80674,-1.9069 -26.70395,-3.06527 -28.66047,-2.57416 -3.13714,0.78746 -3.46426,1.3581 -2.76967,4.83147 2.24749,11.23859 28.73254,41.65053 44.08103,50.61678 13.52379,7.90032 30.62548,10.26047 44.65592,6.16283 z M 547.92972,175.44544 c 13.39934,-6.48042 33.35387,-19.02779 44.85164,-28.20262 19.92867,-15.90238 28.14222,-29.70334 24.90485,-41.84676 -2.68998,-10.090137 -16.7291,-21.244887 -31.78388,-25.253787 -30.3905,-8.09259 -61.95672,13.2838 -71.01459,48.090497 -3.30485,12.69969 -2.28716,31.30762 2.1828,39.91137 3.92796,7.56043 10.24304,12.41991 16.14015,12.41991 2.27454,0 8.89807,-2.30338 14.71903,-5.11861 z m -13.44481,-24.66507 c -2.56486,-2.56511 -1.96483,-9.15542 2.04979,-22.51401 4.99667,-16.6263 8.79929,-19.89023 29.06267,-24.94562 11.39738,-2.84347 17.37804,-2.67201 18.60797,0.53344 2.58319,6.73235 -30.47146,42.58287 -44.0075,47.72978 -2.82902,1.0757 -3.9983,0.91124 -5.71293,-0.80359 z m 244.4877,27.19845 c 10.89305,-5.55779 15.14145,-16.10234 15.06738,-37.3973 -0.0408,-11.73001 -0.59253,-15.79023 -2.95766,-21.76583 -11.12703,-28.112757 -40.73357,-45.063167 -68.43928,-39.183017 -13.25524,2.81324 -30.41035,14.82021 -34.18055,23.923177 -2.22808,5.37963 1.31628,15.51658 8.72709,24.95971 10.06829,12.82935 40.40623,36.55412 60.2265,47.0981 10.4796,5.57495 14.41843,6.0071 21.55652,2.36516 z m -16.5247,-28.54871 c -4.18424,-6.73894 -7.36378,-9.41502 -13.67843,-11.51264 -6.13377,-2.0375 -14.28273,-9.32366 -14.29862,-12.78467 -0.004,-0.87615 -0.61046,-3.7649 -1.34766,-6.4194 -1.05369,-3.79412 -2.27242,-5.13406 -5.69804,-6.26472 -4.75527,-1.56955 -7.82361,-6.37014 -5.97525,-9.3486 1.74945,-2.81906 17.18747,-2.18275 28.17882,1.16141 18.25104,5.55298 23.08424,11.43644 23.93011,29.13023 0.41803,8.74441 0.0512,12.27796 -1.60783,15.48643 -2.67723,5.17772 -6.49327,5.39937 -9.5031,0.55196 z"
       id="path3018"
       inkscape:connector-curvature="0" />
  </g>
</svg>
